<svg xmlns="http://www.w3.org/2000/svg" style="display:none">
  <symbol id="plus" viewBox="0 0 24 24">
    <path d="M12 5v14M5 12h14" fill="none" stroke="currentColor" stroke-linecap="round" stroke-width="2"/>
  </symbol>
  <symbol id="eye" viewBox="0 0 24 24">
    <path d="M2.5 12s3.5-6 9.5-6 9.5 6 9.5 6-3.5 6-9.5 6-9.5-6-9.5-6Z" fill="none" stroke="currentColor" stroke-linejoin="round" stroke-width="2"/>
    <circle cx="12" cy="12" r="2.5" fill="none" stroke="currentColor" stroke-width="2"/>
  </symbol>
  <symbol id="shield" viewBox="0 0 24 24">
    <path d="M12 3 5 6v5c0 4.5 2.8 8.4 7 10 4.2-1.6 7-5.5 7-10V6l-7-3Z" fill="none" stroke="currentColor" stroke-linejoin="round" stroke-width="2"/>
  </symbol>
  <symbol id="trash" viewBox="0 0 24 24">
    <path d="M4 7h16M10 11v6M14 11v6M6 7l1 14h10l1-14M9 7l1-3h4l1 3" fill="none" stroke="currentColor" stroke-linecap="round" stroke-linejoin="round" stroke-width="2"/>
  </symbol>
  <symbol id="warning" viewBox="0 0 24 24">
    <path d="M12 4 2.5 20h19L12 4Zm0 6v4m0 3h.01" fill="none" stroke="currentColor" stroke-linecap="round" stroke-linejoin="round" stroke-width="2"/>
  </symbol>
</svg>
